<?xml version="1.0" encoding="UTF-8"?>
<svg version="1.1" xmlns="http://www.w3.org/2000/svg" width="452" height="153">
<path d="M0 0 C5.80928651 3.96941814 10.17766911 8.20751453 13.8984375 14.16796875 C14.28644531 14.75449219 14.67445313 15.34101562 15.07421875 15.9453125 C20.92050266 25.32062597 21.2853076 37.16141614 19.43359375 47.8515625 C18.75890782 50.09120041 17.93954394 52.07392511 16.8984375 54.16796875 C16.29515625 55.39580078 16.29515625 55.39580078 15.6796875 56.6484375 C9.54106828 67.91962446 0.40345665 73.83266712 -11.2890625 78.41796875 C-24.17848251 81.85514742 -38.46383583 80.85158309 -50.29296875 74.4375 C-60.90008009 67.04645302 -69.36439192 57.58305856 -71.77734375 44.6328125 C-73.33126571 32.81926121 -71.31901355 21.71866718 -64.3515625 11.79296875 C-47.92782942 -7.9409741 -22.28962679 -13.166039 0 0 Z M-44.875 24.2890625 C-48.72555277 30.18752073 -49.08542999 36.31572348 -48.1015625 43.16796875 C-45.48702369 49.37400927 -41.04657912 54.05204995 -35.1015625 57.16796875 C-29.13956282 59.55276862 -24.06204984 59.49571834 -18.0625 57.484375 C-11.55686428 54.65856798 -7.16465144 49.75594951 -3.6640625 43.66796875 C-2.14095424 36.89859869 -2.97122458 31.27656339 -6.1015625 25.16796875 C-9.72759856 19.62226654 -13.7875069 16.86059209 -20.1015625 15.16796875 C-30.78222421 13.79072553 -38.0066268 16.0201551 -44.875 24.2890625 Z " fill="#FB7C10" transform="translate(176.1015625,47.83203125)"/>
<path d="M0 0 C10.54381312 -0.02312343 21.08762025 -0.04091509 31.63145351 -0.05181217 C36.52685374 -0.057041 41.42223668 -0.06413864 46.31762695 -0.07543945 C51.03787978 -0.08626834 55.75811592 -0.09227684 60.4783802 -0.09487724 C62.28338954 -0.09673149 64.08839792 -0.10035209 65.89340019 -0.10573006 C68.41259644 -0.11294052 70.9317229 -0.11399094 73.45092773 -0.11352539 C74.20474228 -0.11712067 74.95855682 -0.12071594 75.73521423 -0.12442017 C80.88594784 -0.11405216 80.88594784 -0.11405216 82 1 C82.0983721 2.33043625 82.13078592 3.66593344 82.1328125 5 C82.13410156 5.804375 82.13539062 6.60875 82.13671875 7.4375 C82.13285156 8.283125 82.12898438 9.12875 82.125 10 C82.12886719 10.845625 82.13273437 11.69125 82.13671875 12.5625 C82.13542969 13.366875 82.13414063 14.17125 82.1328125 15 C82.13168457 15.7425 82.13055664 16.485 82.12939453 17.25 C82 19 82 19 81 20 C79.15881971 20.09381302 77.31402359 20.11743954 75.47045898 20.11352539 C74.28931015 20.11344986 73.10816132 20.11337433 71.89122009 20.11329651 C70.6058284 20.10813522 69.32043671 20.10297394 67.99609375 20.09765625 C66.0338662 20.09553383 66.0338662 20.09553383 64.03199768 20.09336853 C60.54837141 20.0895441 57.06478661 20.07971446 53.58117676 20.06866455 C50.02873302 20.05844882 46.47628241 20.05381586 42.92382812 20.04882812 C35.94918209 20.03862232 28.97465003 20.01905064 22 20 C22 31.88 22 43.76 22 56 C38.83 56 55.66 56 73 56 C73 62.6 73 69.2 73 76 C70.09560239 76.96813254 68.2718176 77.12144834 65.25317383 77.11352539 C64.29240433 77.11344986 63.33163483 77.11337433 62.3417511 77.11329651 C61.30729355 77.10813522 60.272836 77.10297394 59.20703125 77.09765625 C57.61528328 77.09553383 57.61528328 77.09553383 55.99137878 77.09336853 C52.59839065 77.08776606 49.20546823 77.07521314 45.8125 77.0625 C43.51367283 77.05748532 41.21484462 77.05292236 38.91601562 77.04882812 C33.27729799 77.03864626 27.63872266 77.01907122 22 77 C22 86.9 22 96.8 22 107 C19.26097274 107.91300909 17.6255173 108.12846608 14.8046875 108.1328125 C14.00675781 108.13410156 13.20882812 108.13539062 12.38671875 108.13671875 C11.55785156 108.13285156 10.72898437 108.12898438 9.875 108.125 C8.62009766 108.13080078 8.62009766 108.13080078 7.33984375 108.13671875 C1.12664874 108.12664874 1.12664874 108.12664874 0 107 C-0.09543095 105.60856311 -0.12188575 104.21231633 -0.12025452 102.81761169 C-0.12162918 101.91592255 -0.12300385 101.0142334 -0.12442017 100.08522034 C-0.12082489 99.08828659 -0.11722961 98.09135284 -0.11352539 97.06420898 C-0.11367142 96.02043091 -0.11381744 94.97665283 -0.1139679 93.90124512 C-0.11326826 90.43284057 -0.10547353 86.96448897 -0.09765625 83.49609375 C-0.09579225 81.09855682 -0.09436826 78.7010195 -0.09336853 76.30348206 C-0.08954194 69.97904416 -0.07971046 63.65462906 -0.06866455 57.3302002 C-0.05845345 50.88224598 -0.05387156 44.43428809 -0.04882812 37.98632812 C-0.03808832 25.324209 -0.02120119 12.66210571 0 0 Z " fill="#0F49A6" transform="translate(21,19)"/>
<path d="M0 0 C1.30227539 0.0611499 1.30227539 0.0611499 2.63085938 0.12353516 C4.04044922 0.18927734 4.04044922 0.18927734 5.47851562 0.25634766 C6.96158203 0.33369141 6.96158203 0.33369141 8.47460938 0.41259766 C9.46332031 0.45642578 10.45203125 0.50025391 11.47070312 0.54541016 C18.846667 0.90965529 18.846667 0.90965529 19.97460938 2.03759766 C20.086801 3.57063874 20.13134838 5.10870342 20.14819336 6.64575195 C20.1616832 7.62734787 20.17517303 8.60894379 20.18907166 9.62028503 C20.19951004 10.68999039 20.20994843 11.75969574 20.22070312 12.86181641 C20.25365421 15.10986699 20.28686564 17.35791377 20.3203125 19.60595703 C20.36766309 23.16313942 20.41205638 26.72030779 20.45141602 30.27758789 C20.4912115 33.70166734 20.54275455 37.1254186 20.59570312 40.54931641 C20.60411728 41.6089006 20.61253143 42.6684848 20.62120056 43.76017761 C20.74753346 52.60458357 20.74753346 52.60458357 24.78710938 60.28759766 C29.08959961 63.72958985 33.01794923 64.46966544 38.41992188 64.36962891 C42.93541127 63.78275337 49.65514133 62.3570657 52.97460938 59.03759766 C53.09791026 57.22792026 53.15251121 55.41351928 53.17993164 53.59985352 C53.19987686 52.43872543 53.21982208 51.27759735 53.2403717 50.08128357 C53.2570842 48.81776566 53.27379669 47.55424774 53.29101562 46.25244141 C53.31179672 44.96648575 53.33257782 43.68053009 53.35398865 42.35560608 C53.40927114 38.93123862 53.45865299 35.50681016 53.50683594 32.08233643 C53.55700602 28.59015452 53.61271548 25.09806156 53.66796875 21.60595703 C53.7756258 14.74991264 53.8765422 7.89378586 53.97460938 1.03759766 C61.56460938 1.03759766 69.15460938 1.03759766 76.97460938 1.03759766 C76.97460938 28.42759766 76.97460938 55.81759766 76.97460938 84.03759766 C69.38460937 84.03759766 61.79460937 84.03759766 53.97460938 84.03759766 C53.64460938 83.04759766 53.31460938 82.05759766 52.97460938 81.03759766 C52.49636719 81.32634766 52.018125 81.61509766 51.52539062 81.91259766 C41.70716854 86.84741085 28.58384197 86.76469682 18.00585938 84.22509766 C10.36473693 81.65425272 5.25415494 77.85914718 0.97460938 71.03759766 C-4.73940308 58.92119355 -3.53056575 45.15493769 -3.38208008 32.1105957 C-3.33748747 28.18964865 -3.32055524 24.26931536 -3.30859375 20.34814453 C-3.29518912 17.86310953 -3.28027158 15.37808212 -3.26367188 12.89306641 C-3.25628494 11.71721481 -3.24889801 10.54136322 -3.24128723 9.32987976 C-3.22203438 7.71603142 -3.22203438 7.71603142 -3.20239258 6.06958008 C-3.19254837 5.11919357 -3.18270416 4.16880707 -3.17256165 3.18962097 C-2.97956401 0.36749329 -2.83920558 0.05270464 0 0 Z " fill="#1049A6" transform="translate(282.025390625,41.96240234375)"/>
<path d="M0 0 C0.495 0.495 0.495 0.495 1 1 C0.72449438 7.47438213 -1.93453556 12.37809659 -5 18 C-14.28 16.21245902 -14.28 16.21245902 -18.8125 14.875 C-25.85701354 13.06355366 -34.42146878 12.64554174 -41 16 C-42.1576585 17.87957244 -42.1576585 17.87957244 -42 20 C-39.92400217 22.55701675 -38.02292301 23.57064617 -34.91015625 24.5390625 C-33.71543701 24.9107959 -33.71543701 24.9107959 -32.49658203 25.29003906 C-27.70793373 26.65180214 -22.86976462 27.81748333 -18.01757812 28.9296875 C-9.97082123 30.92334202 -3.43183967 34.63698782 2 41 C5.86319737 47.55430816 5.76422464 53.57003824 5 61 C3.17719443 67.30141924 -0.69666828 72.10394131 -6.40234375 75.37890625 C-20.99228911 82.89883404 -39.36893576 81.93102079 -54.78393555 77.04248047 C-58.57862036 75.72442494 -61.49941536 74.10035078 -65 72 C-62.36 66.72 -59.72 61.44 -57 56 C-52.4112186 56.7647969 -48.41689011 57.73457722 -44 59.0625 C-36.1082497 61.27940562 -26.84164053 63.25810395 -19.15234375 59.671875 C-16.67923303 58.10384392 -16.67923303 58.10384392 -16.1875 54.8125 C-16.125625 53.884375 -16.06375 52.95625 -16 52 C-20.91704776 50.30287507 -25.82553755 48.74353727 -30.84765625 47.38671875 C-31.86537109 47.10763672 -32.88308594 46.82855469 -33.93164062 46.54101562 C-36.01957645 45.9718154 -38.11079238 45.41451398 -40.20507812 44.86914062 C-49.613129 42.2501588 -56.28911889 37.96062215 -62 30 C-64.28714767 23.09428961 -63.97747187 15.21940078 -61 8.625 C-57.16436919 1.89373804 -51.333965 -2.0926591 -44.0390625 -4.47265625 C-29.19917154 -8.31055908 -14.1820906 -4.67472029 0 0 Z " fill="#0F49A6" transform="translate(426,47)"/>
<path d="M0 0 C0.84691406 -0.02449219 1.69382813 -0.04898438 2.56640625 -0.07421875 C12.12098409 -0.11811421 20.34131598 3.84400603 27.26953125 10.40625 C29.24671223 12.37304299 31.19758351 14.35952895 33.125 16.375 C24.58604796 26.83521625 24.58604796 26.83521625 19.125 30.375 C16.125 29.375 16.125 29.375 13.875 27 C9.72708835 23.04062979 5.98396491 21.58832384 0.3125 20.9375 C-6.41638863 21.25107928 -12.77623901 23.70737834 -17.375 28.6875 C-21.53634395 34.21244818 -22.73075433 40.5958212 -21.875 47.375 C-19.71646947 54.07780534 -15.78876947 58.61169215 -9.875 62.375 C-4.41928522 64.73087684 0.80805838 65.38592949 6.49609375 63.65234375 C11.25077638 61.72392567 14.2894554 59.81324373 17.125 55.375 C20.27406415 56.79102213 22.62023672 58.51235082 25.1875 60.8125 C25.85910156 61.40933594 26.53070313 62.00617188 27.22265625 62.62109375 C28.16431641 63.48927734 28.16431641 63.48927734 29.125 64.375 C29.72183594 64.86097656 30.31867188 65.34695312 30.93359375 65.84765625 C32.125 67.375 32.125 67.375 31.98828125 69.3515625 C28.53647668 77.44221755 19.69392613 81.07742692 12.125 84.375 C2.80610071 87.48129976 -10.19773767 86.34245395 -19.171875 82.7578125 C-30.87291393 76.77202091 -39.60820639 68.11226517 -44.18359375 55.69921875 C-47.4095495 44.85490423 -46.44532524 33.62208294 -41.43359375 23.44921875 C-34.79590084 12.3145274 -25.84563037 5.49713116 -13.6875 1.265625 C-9.0515238 0.18263056 -4.74336706 0.0071544 0 0 Z " fill="#1049A5" transform="translate(243.875,41.625)"/>
<path d="M0 0 C10.54381312 -0.02312343 21.08762025 -0.04091509 31.63145351 -0.05181217 C36.52685374 -0.057041 41.42223668 -0.06413864 46.31762695 -0.07543945 C51.03787978 -0.08626834 55.75811592 -0.09227684 60.4783802 -0.09487724 C62.28338954 -0.09673149 64.08839792 -0.10035209 65.89340019 -0.10573006 C68.41259644 -0.11294052 70.9317229 -0.11399094 73.45092773 -0.11352539 C74.20474228 -0.11712067 74.95855682 -0.12071594 75.73521423 -0.12442017 C80.88594784 -0.11405216 80.88594784 -0.11405216 82 1 C82.0983721 2.33043625 82.13078592 3.66593344 82.1328125 5 C82.13410156 5.804375 82.13539062 6.60875 82.13671875 7.4375 C82.13285156 8.283125 82.12898438 9.12875 82.125 10 C82.12886719 10.845625 82.13273437 11.69125 82.13671875 12.5625 C82.13542969 13.366875 82.13414063 14.17125 82.1328125 15 C82.13168457 15.7425 82.13055664 16.485 82.12939453 17.25 C82 19 82 19 81 20 C79.18944975 20.09376053 77.37522799 20.1174411 75.56225586 20.11352539 C74.40112778 20.11344986 73.23999969 20.11337433 72.04368591 20.11329651 C70.14840904 20.10555458 70.14840904 20.10555458 68.21484375 20.09765625 C66.92888809 20.0962413 65.64293243 20.09482635 64.31800842 20.09336853 C60.89356557 20.08954418 57.46916491 20.07971462 54.04473877 20.06866455 C50.55261811 20.05844864 47.06049066 20.05387053 43.56835938 20.04882812 C36.71222222 20.03809227 29.85611313 20.02101684 23 20 C23 19.67 23 19.34 23 19 C41.81 19 60.62 19 80 19 C79.67 13.72 79.34 8.44 79 3 C53.59 2.67 28.18 2.34 2 2 C2 35.99 2 69.98 2 105 C7.28 105 12.56 105 18 105 C19.485 105.495 19.485 105.495 21 106 C21 96.43 21 86.86 21 77 C21.33 77 21.66 77 22 77 C22 86.9 22 96.8 22 107 C19.26097274 107.91300909 17.6255173 108.12846608 14.8046875 108.1328125 C14.00675781 108.13410156 13.20882812 108.13539062 12.38671875 108.13671875 C11.55785156 108.13285156 10.72898437 108.12898438 9.875 108.125 C8.62009766 108.13080078 8.62009766 108.13080078 7.33984375 108.13671875 C1.12664874 108.12664874 1.12664874 108.12664874 0 107 C-0.09543095 105.60856311 -0.12188575 104.21231633 -0.12025452 102.81761169 C-0.12162918 101.91592255 -0.12300385 101.0142334 -0.12442017 100.08522034 C-0.12082489 99.08828659 -0.11722961 98.09135284 -0.11352539 97.06420898 C-0.11367142 96.02043091 -0.11381744 94.97665283 -0.1139679 93.90124512 C-0.11326826 90.43284057 -0.10547353 86.96448897 -0.09765625 83.49609375 C-0.09579225 81.09855682 -0.09436826 78.7010195 -0.09336853 76.30348206 C-0.08954194 69.97904416 -0.07971046 63.65462906 -0.06866455 57.3302002 C-0.05845345 50.88224598 -0.05387156 44.43428809 -0.04882812 37.98632812 C-0.03808832 25.324209 -0.02120119 12.66210571 0 0 Z " fill="#1B4282" transform="translate(21,19)"/>
<path d="M0 0 C7.59 0 15.18 0 23 0 C23 27.39 23 54.78 23 83 C15.41 83 7.82 83 0 83 C0.33 82.34 0.66 81.68 1 81 C7.6 81 14.2 81 21 81 C20.91460463 70.99485614 20.82091043 60.98988556 20.71247292 50.98496437 C20.66245931 46.33961619 20.61612991 41.69429131 20.578125 37.04882812 C20.54133592 32.56835616 20.49499376 28.08807684 20.44193649 23.60776901 C20.42335851 21.895729 20.40826322 20.18364764 20.39665604 18.47154617 C20.37985148 16.07929878 20.35083148 13.68749588 20.31884766 11.29541016 C20.31668747 10.58259384 20.31452728 9.86977753 20.31230164 9.13536072 C20.34886778 5.12114085 20.34886778 5.12114085 18 2 C12.39 1.67 6.78 1.34 1 1 C1 20.8 1 40.6 1 61 C-1.97 61.495 -1.97 61.495 -5 62 C-6.43637698 63.95163118 -6.43637698 63.95163118 -7 66 C-14.41017023 66.11459026 -21.64206267 65.91160286 -29 65 C-29.33 63.35 -29.66 61.7 -30 60 C-28.865625 60.495 -27.73125 60.99 -26.5625 61.5 C-17.68506173 64.7550607 -10.4550706 62.75948675 -2 59 C-0.26945391 57.26945391 -0.83035372 54.92196747 -0.79467773 52.56225586 C-0.77473251 51.40112778 -0.75478729 50.23999969 -0.73423767 49.04368591 C-0.71752518 47.780168 -0.70081268 46.51665009 -0.68359375 45.21484375 C-0.66281265 43.92888809 -0.64203156 42.64293243 -0.62062073 41.31800842 C-0.56533824 37.89364096 -0.51595639 34.4692125 -0.46777344 31.04473877 C-0.41760335 27.55255686 -0.3618939 24.0604639 -0.30664062 20.56835938 C-0.19898358 13.71231498 -0.09806717 6.8561882 0 0 Z " fill="#1C468B" transform="translate(336,43)"/>
<path d="M0 0 C0.33 0 0.66 0 1 0 C1 11.55 1 23.1 1 35 C17.83 35 34.66 35 52 35 C52 41.6 52 48.2 52 55 C49.12037166 55.95987611 47.33372559 56.12153814 44.3449707 56.11352539 C43.40422195 56.11344986 42.46347321 56.11337433 41.49421692 56.11329651 C40.48163315 56.10813522 39.46904938 56.10297394 38.42578125 56.09765625 C37.38681198 56.0962413 36.34784271 56.09482635 35.27738953 56.09336853 C31.95573052 56.08776656 28.63413867 56.07521372 25.3125 56.0625 C23.06184993 56.05748525 20.81119881 56.0529223 18.56054688 56.04882812 C13.04034163 56.03779649 7.52017561 56.02105643 2 56 C1.505 54.515 1.505 54.515 1 53 C5.86169799 51.7081239 10.58936323 51.95120369 15.5703125 52.0859375 C16.48835663 52.10717682 17.40640076 52.12841614 18.3522644 52.15029907 C20.28715573 52.19644089 22.22198259 52.24535879 24.15673828 52.296875 C27.12128608 52.37490225 30.08594026 52.44198173 33.05078125 52.5078125 C34.93230782 52.55403442 36.81381901 52.60088775 38.6953125 52.6484375 C39.5828421 52.66828705 40.4703717 52.6881366 41.38479614 52.70858765 C42.20930267 52.73176056 43.0338092 52.75493347 43.88330078 52.77880859 C44.60768341 52.79736908 45.33206604 52.81592957 46.07839966 52.83505249 C48 53 48 53 51 54 C50.67 48.39 50.34 42.78 50 37 C34.82 36.67 19.64 36.34 4 36 C3.67 36.66 3.34 37.32 3 38 C2.01 37.34 1.02 36.68 0 36 C-0.2667616 33.23371085 -0.34804189 30.69380369 -0.29296875 27.9296875 C-0.28872391 27.13345978 -0.28447906 26.33723206 -0.28010559 25.51687622 C-0.26328834 22.96924271 -0.22563179 20.42239511 -0.1875 17.875 C-0.17245705 16.14975099 -0.15876796 14.42448961 -0.14648438 12.69921875 C-0.11337501 8.46584218 -0.06157285 4.23305441 0 0 Z " fill="#224378" transform="translate(42,40)"/>
<path d="M0 0 C7.18321346 4.9082065 13.24264485 10.66943227 15.8984375 19.16796875 C14.4134375 18.67296875 14.4134375 18.67296875 12.8984375 18.16796875 C12.4034375 16.68296875 12.4034375 16.68296875 11.8984375 15.16796875 C11.2384375 14.83796875 10.5784375 14.50796875 9.8984375 14.16796875 C9.4034375 12.68296875 9.4034375 12.68296875 8.8984375 11.16796875 C8.3828125 10.65234375 7.8671875 10.13671875 7.3359375 9.60546875 C6.8615625 9.13109375 6.3871875 8.65671875 5.8984375 8.16796875 C5.8984375 7.50796875 5.8984375 6.84796875 5.8984375 6.16796875 C5.3003125 5.87921875 4.7021875 5.59046875 4.0859375 5.29296875 C1.8984375 4.16796875 1.8984375 4.16796875 -1.1015625 2.16796875 C-1.9265625 2.02359375 -2.7515625 1.87921875 -3.6015625 1.73046875 C-6.1015625 1.16796875 -6.1015625 1.16796875 -7.6015625 -0.45703125 C-8.0965625 -0.91078125 -8.5915625 -1.36453125 -9.1015625 -1.83203125 C-10.77579236 -1.53904102 -12.44334477 -1.20513024 -14.1015625 -0.83203125 C-15.0915625 -1.49203125 -16.0815625 -2.15203125 -17.1015625 -2.83203125 C-19.95504507 -3.02783026 -22.68844491 -3.11075284 -25.5390625 -3.08203125 C-26.30283203 -3.08976562 -27.06660156 -3.0975 -27.85351562 -3.10546875 C-31.87716226 -3.09146128 -34.55383901 -2.86853767 -38.1015625 -0.83203125 C-39.4215625 -0.83203125 -40.7415625 -0.83203125 -42.1015625 -0.83203125 C-46.45128249 0.17772518 -49.72562537 1.19714408 -53.1015625 4.16796875 C-53.7615625 3.83796875 -54.4215625 3.50796875 -55.1015625 3.16796875 C-39.79339829 -10.70650032 -17.08940867 -10.09437364 0 0 Z " fill="#E17E2D" transform="translate(176.1015625,47.83203125)"/>
<path d="M0 0 C2.31 0 4.62 0 7 0 C7.495 1.485 7.495 1.485 8 3 C8.66 3 9.32 3 10 3 C11.4783226 5.95664519 11.06032783 8.74229737 11 12 C10.34 12 9.68 12 9 12 C9 12.66 9 13.32 9 14 C5.69711664 16.20192224 4.72537273 16.23959968 0.89453125 16.1953125 C-0.08837891 16.18886719 -1.07128906 16.18242188 -2.08398438 16.17578125 C-3.10814453 16.15902344 -4.13230469 16.14226562 -5.1875 16.125 C-6.22326172 16.11597656 -7.25902344 16.10695313 -8.32617188 16.09765625 C-10.88434685 16.0740786 -13.44205748 16.0411703 -16 16 C-16.33 15.01 -16.66 14.02 -17 13 C-18.010625 13.020625 -19.02125 13.04125 -20.0625 13.0625 C-23.80327257 13.00312266 -27.31244898 12.60204915 -31 12 C-31.66 14.64 -32.32 17.28 -33 20 C-34.32 19.67 -35.64 19.34 -37 19 C-35.77472971 14.94718288 -34.30119506 11.55639236 -32 8 C-27.51244358 8.64987479 -23.33861714 9.75810972 -19 11.0625 C-11.1082497 13.27940562 -1.84164053 15.25810395 5.84765625 11.671875 C8.32076697 10.10384392 8.32076697 10.10384392 8.8125 6.8125 C8.874375 5.884375 8.93625 4.95625 9 4 C6.03 3.01 3.06 2.02 0 1 C0 0.67 0 0.34 0 0 Z " fill="#1C4386" transform="translate(401,95)"/>
<path d="M0 0 C1.35610116 3.9848511 0.98626022 7.98440114 0.875 12.125 C0.75663885 20.43059644 1.83794873 27.66911423 6 35 C8.0335948 36.26804566 8.0335948 36.26804566 10 37 C10 37.66 10 38.32 10 39 C11.32 39 12.64 39 14 39 C14.2475 39.5775 14.495 40.155 14.75 40.75 C15.93990475 43.13449889 15.93990475 43.13449889 18.125 45.125 C20 47 20 47 20 49 C20.9075 49.268125 21.815 49.53625 22.75 49.8125 C25.71471963 50.89576294 27.6169754 51.98359457 30 54 C21.53199504 54 15.5209938 48.38015405 9.65625 42.75 C0.55605537 32.97068636 -2.40625985 23.05793332 -2.203125 9.8203125 C-1.94736642 6.26920304 -1.21350496 3.33713863 0 0 Z " fill="#F18019" transform="translate(106,71)"/>
<path d="M0 0 C1.30227539 0.0611499 1.30227539 0.0611499 2.63085938 0.12353516 C4.04044922 0.18927734 4.04044922 0.18927734 5.47851562 0.25634766 C6.96158203 0.33369141 6.96158203 0.33369141 8.47460938 0.41259766 C9.46332031 0.45642578 10.45203125 0.50025391 11.47070312 0.54541016 C18.846667 0.90965529 18.846667 0.90965529 19.97460938 2.03759766 C20.08678854 3.56003932 20.13134716 5.08753767 20.14819336 6.61401367 C20.1616832 7.58915421 20.17517303 8.56429474 20.18907166 9.56898499 C20.19951004 10.63241623 20.20994843 11.69584747 20.22070312 12.79150391 C20.2536635 15.03043978 20.28687475 17.26937198 20.3203125 19.50830078 C20.36758997 23.0477423 20.4119653 26.58717129 20.45141602 30.12670898 C20.49132261 33.53597437 20.5428475 36.94491806 20.59570312 40.35400391 C20.60411728 41.40326553 20.61253143 42.45252716 20.62120056 43.53358459 C20.71852557 49.36539929 21.30413033 54.44301753 22.97460938 60.03759766 C21.48960937 59.54259766 21.48960937 59.54259766 19.97460938 59.03759766 C19.19791633 55.57489487 18.83087736 52.33416883 18.76928711 48.78833008 C18.74934189 47.76764938 18.72939667 46.74696869 18.70884705 45.69535828 C18.69213455 44.60560196 18.67542206 43.51584564 18.65820312 42.39306641 C18.63742203 41.26814285 18.61664093 40.1432193 18.5952301 38.98420715 C18.52995146 35.39789826 18.47095039 31.81151739 18.41210938 28.22509766 C18.36890354 25.79084548 18.32528859 23.35660053 18.28125 20.92236328 C18.17429224 14.96084812 18.07296369 8.99926071 17.97460938 3.03759766 C12.03460938 3.03759766 6.09460938 3.03759766 -0.02539062 3.03759766 C-1.26879039 5.52439718 -1.1836655 7.25556854 -1.23071289 10.03808594 C-1.25065811 11.07901398 -1.27060333 12.11994202 -1.29115295 13.19241333 C-1.30786545 14.31952728 -1.32457794 15.44664124 -1.34179688 16.60791016 C-1.36257797 17.7592746 -1.38335907 18.91063904 -1.4047699 20.09689331 C-1.47030728 23.78539906 -1.5291699 27.47397769 -1.58789062 31.16259766 C-1.63107185 33.65869903 -1.67468601 36.15479296 -1.71875 38.65087891 C-1.82599294 44.77970746 -1.92775151 50.90860899 -2.02539062 57.03759766 C-2.35539062 57.03759766 -2.68539063 57.03759766 -3.02539062 57.03759766 C-3.04851978 49.75338217 -3.06630864 42.46917456 -3.0772028 35.18492985 C-3.08243037 31.80287953 -3.08952573 28.42085426 -3.10083008 25.03881836 C-3.11373329 21.15429988 -3.11861986 17.26979169 -3.12304688 13.38525391 C-3.12820816 12.16548355 -3.13336945 10.9457132 -3.13868713 9.6889801 C-3.13876266 8.56789352 -3.1388382 7.44680695 -3.13891602 6.29174805 C-3.14113663 5.29913467 -3.14335724 4.3065213 -3.14564514 3.28382874 C-2.99117263 0.39844068 -2.89750794 0.05378691 0 0 Z " fill="#22457D" transform="translate(282.025390625,41.96240234375)"/>
<path d="M0 0 C1.98 0 3.96 0 6 0 C4 2 4 2 0.625 3.8125 C-4.51871321 6.69982342 -7.1034438 10.47037835 -9 16 C-9.90724787 22.24605265 -9.80706793 27.5733795 -6.375 33 C-1.87645362 38.8259863 3.00042012 41.32010083 10 43 C10 43.33 10 43.66 10 44 C1.42857143 44.14285714 1.42857143 44.14285714 -2 43 C-2 42.01 -2 41.02 -2 40 C-3.32 39.67 -4.64 39.34 -6 39 C-6 38.01 -6 37.02 -6 36 C-6.99 35.67 -7.98 35.34 -9 35 C-9 33.68 -9 32.36 -9 31 C-9.66 31 -10.32 31 -11 31 C-11.22162857 28.22964291 -11.42779249 25.45961005 -11.625 22.6875 C-11.68945312 21.90181641 -11.75390625 21.11613281 -11.8203125 20.30664062 C-11.871875 19.54931641 -11.9234375 18.79199219 -11.9765625 18.01171875 C-12.02893066 17.31522217 -12.08129883 16.61872559 -12.13525391 15.90112305 C-12 14 -12 14 -10 11 C-9.60986284 9.0103005 -9.26797351 7.00980131 -9 5 C-8.01 5 -7.02 5 -6 5 C-6 4.34 -6 3.68 -6 3 C-4.02 2.67 -2.04 2.34 0 2 C0 1.34 0 0.68 0 0 Z " fill="#E08133" transform="translate(138,63)"/>
<path d="M0 0 C0.66 0.99 1.32 1.98 2 3 C1.525625 3.391875 1.05125 3.78375 0.5625 4.1875 C-2.95954939 8.2730773 -2.19180161 14.43175986 -2.1875 19.5625 C-2.18814453 20.35446777 -2.18878906 21.14643555 -2.18945312 21.96240234 C-2.13161219 28.44715941 -1.39259781 34.65870638 0 41 C0.66 41 1.32 41 2 41 C3.96120225 42.6201236 5.0954958 44.16494729 6.375 46.375 C8.23475321 49.37921672 10.47616007 51.54087391 13 54 C13.66 54.99 14.32 55.98 15 57 C5.66114917 52.58490059 -0.34484861 44.73639116 -4.10546875 35.1953125 C-7.24345082 24.79430152 -6.52159602 15.24596044 -3 5 C-2.04743356 3.305776 -1.0595799 1.629438 0 0 Z " fill="#1C3A6A" transform="translate(204,63)"/>
<path d="M0 0 C0.33 0 0.66 0 1 0 C1 2.64 1 5.28 1 8 C2.32 8.66 3.64 9.32 5 10 C5 12.66666667 5 15.33333333 5 18 C5.33 18.99 5.66 19.98 6 21 C6.12375 22.7325 6.12375 22.7325 6.25 24.5 C6.62274528 28.12688188 6.62274528 28.12688188 9.375 29.75 C10.24125 30.1625 11.1075 30.575 12 31 C13.8125 32.6875 13.8125 32.6875 15 34 C13.515 34.495 13.515 34.495 12 35 C5.72279542 31.31359238 2.05528444 25.86255991 0 19 C-0.97767607 14.54546341 -0.97882158 10.65827938 -0.5625 6.125 C-0.46066406 4.97257812 -0.35882813 3.82015625 -0.25390625 2.6328125 C-0.17011719 1.76398438 -0.08632813 0.89515625 0 0 Z " fill="#124698" transform="translate(281,88)"/>
<path d="M0 0 C7.26 0 14.52 0 22 0 C22 27.39 22 54.78 22 83 C21.34 82.67 20.68 82.34 20 82 C20.00222061 81.01250259 20.00444122 80.02500519 20.00672913 79.00758362 C20.02696082 69.72200971 20.04197227 60.43644025 20.05181217 51.15084934 C20.05704093 46.3765172 20.06413844 41.60220279 20.07543945 36.82788086 C20.0862686 32.22433738 20.09227689 27.62081101 20.09487724 23.01725578 C20.09673144 21.25690377 20.10035196 19.49655274 20.10573006 17.73620796 C20.11294086 15.27927723 20.11399093 12.82241805 20.11352539 10.36547852 C20.11712067 9.63036545 20.12071594 8.89525238 20.12442017 8.13786316 C20.41400668 4.78416893 20.41400668 4.78416893 19 2 C17.58672053 1.84379445 16.1664541 1.74943827 14.74609375 1.68359375 C13.89208984 1.64169922 13.03808594 1.59980469 12.15820312 1.55664062 C11.26037109 1.51732422 10.36253906 1.47800781 9.4375 1.4375 C8.53580078 1.39431641 7.63410156 1.35113281 6.70507812 1.30664062 C4.47021515 1.20021858 2.23523692 1.09820012 0 1 C0 0.67 0 0.34 0 0 Z " fill="#28477B" transform="translate(337,43)"/>
<path d="M0 0 C0.66 0.33 1.32 0.66 2 1 C1.57664615 7.49142565 -0.91099799 12.33492989 -4 18 C-5.50050978 17.71096738 -7.00037738 17.41860081 -8.5 17.125 C-9.88638672 16.85429688 -9.88638672 16.85429688 -11.30078125 16.578125 C-14 16 -14 16 -17.6875 14.875 C-23.89336773 13.23038081 -30.62657741 13.85062291 -37 14 C-37 13.34 -37 12.68 -37 12 C-33.64585201 11.97070023 -30.29173747 11.9531011 -26.9375 11.9375 C-25.99455078 11.92912109 -25.05160156 11.92074219 -24.08007812 11.91210938 C-18.92712502 11.89415483 -14.08133258 12.16082024 -9 13 C-8.01 13 -7.02 13 -6 13 C-6 12.34 -6 11.68 -6 11 C-4.68 10.67 -3.36 10.34 -2 10 C-1.855625 9.278125 -1.71125 8.55625 -1.5625 7.8125 C-1.04166667 5.20833333 -0.52083333 2.60416667 0 0 Z " fill="#174081" transform="translate(425,47)"/>
<path d="M0 0 C4.62 0 9.24 0 14 0 C14 0.66 14 1.32 14 2 C15.65 2 17.3 2 19 2 C19 2.66 19 3.32 19 4 C19.763125 4.226875 20.52625 4.45375 21.3125 4.6875 C24.56875596 6.27776454 25.31373199 7.8683594 27 11 C27.66 11.33 28.32 11.66 29 12 C30.14170067 15.92773752 30.10357788 19.74578979 30.0625 23.8125 C30.05347656 24.97394531 30.04445312 26.13539062 30.03515625 27.33203125 C30.02355469 28.21246094 30.01195312 29.09289062 30 30 C29.34 30 28.68 30 28 30 C28.03480469 29.3709375 28.06960937 28.741875 28.10546875 28.09375 C28.33062508 20.97452138 27.78653635 15.02538233 22.8125 9.625 C22.214375 9.08875 21.61625 8.5525 21 8 C21 7.34 21 6.68 21 6 C14.04931961 3.20919651 7.45491562 2.36580804 0 2 C0 1.34 0 0.68 0 0 Z " fill="#E08737" transform="translate(144,61)"/>
<path d="M0 0 C6.08805631 2.48031924 9.50623506 7.09147738 12 13 C13.31230097 23.19102191 11.59326632 29.61010052 6 38 C5.34 38 4.68 38 4 38 C4 34 4 34 5.375 32.5625 C5.91125 32.046875 6.4475 31.53125 7 31 C8.86603291 27.20105127 9.24603832 24.14693711 9.1875 19.9375 C9.18105469 18.91527344 9.17460937 17.89304687 9.16796875 16.83984375 C8.97091971 13.33243939 8.97091971 13.33243939 8 10 C7.01 9.67 6.02 9.34 5 9 C4.31867549 7.33927151 3.65257873 5.672233 3 4 C2.01 3.34 1.02 2.68 0 2 C0 1.34 0 0.68 0 0 Z " fill="#1A448D" transform="translate(419,81)"/>
<path d="M0 0 C1.32 0 2.64 0 4 0 C3 3 3 3 0.9453125 4.38671875 C-10.60672048 9.71473396 -24.49826883 10.06537297 -36.48046875 5.65625 C-37.23263672 5.33140625 -37.23263672 5.33140625 -38 5 C-38 4.67 -38 4.34 -38 4 C-32.25 3.875 -32.25 3.875 -30 5 C-26.79813244 5.26648583 -23.58671838 5.23162107 -20.375 5.25 C-19.49714844 5.270625 -18.61929688 5.29125 -17.71484375 5.3125 C-11.77092281 5.34782791 -7.40931093 4.50408551 -2 2 C-1.34 1.34 -0.68 0.68 0 0 Z " fill="#1B417F" transform="translate(262,119)"/>
<path d="M0 0 C0 0.99 0 1.98 0 3 C-1.65532623 4.01866229 -3.32260138 5.01810813 -5 6 C-5.33 6.99 -5.66 7.98 -6 9 C-6.99 9.33 -7.98 9.66 -9 10 C-13.21967119 15.84262165 -13.09876969 20.68686022 -12.44921875 27.59765625 C-11.99113804 30.0473922 -11.22168867 31.84085227 -10 34 C-10.66 34.66 -11.32 35.32 -12 36 C-15.39369978 29.77821707 -15.92971714 24.01757648 -15 17 C-12.72492156 9.4901346 -8.65964328 4.98402501 -2 1 C-1.34 0.67 -0.68 0.34 0 0 Z " fill="#1A417F" transform="translate(378,44)"/>
<path d="M0 0 C0.66 0 1.32 0 2 0 C0.87548273 2.9719385 -0.22293791 5.33440687 -2 8 C-4.08920932 15.31223262 -3.46410305 21.31922984 0 28 C1.26869098 30.0599176 2.60152426 32.02284465 4 34 C0.81537776 33.05322042 -0.73697662 32.33558155 -2.8125 29.6875 C-4.06161737 26.86055017 -4.26151458 25.05100339 -4 22 C-4.66 22 -5.32 22 -6 22 C-6 17.05 -6 12.1 -6 7 C-5.34 7 -4.68 7 -4 7 C-4 6.01 -4 5.02 -4 4 C-3.34 4 -2.68 4 -2 4 C-1.34 2.68 -0.68 1.36 0 0 Z " fill="#0D3476" transform="translate(225,68)"/>
<path d="M0 0 C4.62228119 4.62228119 4.24464343 11.76040903 4.3125 17.9375 C4.28707256 26.78218127 2.1638895 33.26706235 -2 41 C-2.6875 39.25 -2.6875 39.25 -3 37 C-2.54625 36.443125 -2.0925 35.88625 -1.625 35.3125 C4.41149972 26.72209655 0.86707038 9.73905837 0 0 Z " fill="#CE7E3C" transform="translate(192,67)"/>
<path d="M0 0 C1.69752187 0.25245197 3.38471545 0.57645775 5.0625 0.9375 C5.98160156 1.13214844 6.90070313 1.32679687 7.84765625 1.52734375 C8.91306641 1.76130859 8.91306641 1.76130859 10 2 C10.33 1.34 10.66 0.68 11 0 C12.32 1.32 13.64 2.64 15 4 C3.615 3.505 3.615 3.505 -8 3 C-8 3.66 -8 4.32 -8 5 C-8.680625 5.61875 -9.36125 6.2375 -10.0625 6.875 C-12.20303378 8.77608008 -12.20303378 8.77608008 -12.125 11.0625 C-10.4356229 13.97198279 -8.02010781 14.71484774 -5 16 C-8 17 -8 17 -11.125 15.9375 C-14 14 -14 14 -14.9375 11.0625 C-14.99159571 8.41181002 -14.86010102 6.48473629 -14 4 C-13.38125 3.87625 -12.7625 3.7525 -12.125 3.625 C-9.80879168 3.12802644 -9.80879168 3.12802644 -8 1 C-5.66702567 0.95907063 -3.33294775 0.95758277 -1 1 C-0.67 0.67 -0.34 0.34 0 0 Z " fill="#0F479E" transform="translate(396,56)"/>
<path d="M0 0 C1.1253459 3.30678563 1.02813581 6.42787741 0.93457031 9.8894043 C0.65462618 20.39534059 1.6991454 28.2601049 8 37 C8.71573527 38.64619113 9.4025696 40.30728055 10 42 C2.13952667 35.03786648 -1.54557874 26.39643115 -2.18359375 16.01171875 C-2.30505227 10.27458986 -1.96356507 5.39980396 0 0 Z " fill="#DB843D" transform="translate(106,71)"/>
<path d="M0 0 C1.52152079 0.11633358 3.04220723 0.2435887 4.5625 0.375 C5.40941406 0.44460937 6.25632812 0.51421875 7.12890625 0.5859375 C10 1 10 1 13.15625 2 C18.1024219 3.28680895 22.84733248 3.45799519 27.9375 3.625 C29.3925293 3.68300781 29.3925293 3.68300781 30.87695312 3.7421875 C33.25112076 3.83575076 35.62529492 3.92149208 38 4 C38 3.34 38 2.68 38 2 C40.2747813 0.61888278 41.50171361 -0.05694702 44.1875 0.25 C46 1 46 1 47 3 C40.66922516 5.24814447 34.68103169 5.38302105 28 5.375 C26.89599854 5.37628906 25.79199707 5.37757812 24.65454102 5.37890625 C15.88080761 5.26597002 8.24577919 4.00334071 0 1 C0 0.67 0 0.34 0 0 Z " fill="#224580" transform="translate(368,122)"/>
<path d="M0 0 C10.96552341 2.87620286 20.17124983 9.13110531 26 19 C27.375 22 27.375 22 28 24 C27.01 23.67 26.02 23.34 25 23 C24.67 22.01 24.34 21.02 24 20 C23.34 19.67 22.68 19.34 22 19 C21.67 18.01 21.34 17.02 21 16 C20.484375 15.484375 19.96875 14.96875 19.4375 14.4375 C18.963125 13.963125 18.48875 13.48875 18 13 C18 12.34 18 11.68 18 11 C17.1028125 10.566875 17.1028125 10.566875 16.1875 10.125 C14 9 14 9 11 7 C9.7625 6.7834375 9.7625 6.7834375 8.5 6.5625 C5.66111393 5.92375063 4.91707882 5.09135872 3 3 C2.01 2.67 1.02 2.34 0 2 C0 1.34 0 0.68 0 0 Z " fill="#D4833D" transform="translate(164,43)"/>
<path d="M0 0 C0.33 0 0.66 0 1 0 C1.31490911 4.61866698 0.8791071 6.45648356 -2 10 C-2.2475 10.9075 -2.495 11.815 -2.75 12.75 C-4.86996727 18.26191491 -8.65544403 22.80277993 -13.9375 25.5 C-14.9584375 25.7475 -14.9584375 25.7475 -16 26 C-15.6875 23.625 -15.6875 23.625 -15 21 C-14.01 20.34 -13.02 19.68 -12 19 C-11.34 19.33 -10.68 19.66 -10 20 C-9.34 19.01 -8.68 18.02 -8 17 C-7.34 17 -6.68 17 -6 17 C-5.89042969 16.33613281 -5.78085938 15.67226562 -5.66796875 14.98828125 C-4.78483301 10.07000496 -3.97104259 6.13362448 -1 2 C-0.67 1.34 -0.34 0.68 0 0 Z " fill="#EE8920" transform="translate(192,94)"/>
<path d="M0 0 C0.625 1.875 0.625 1.875 1 4 C0.34 4.66 -0.32 5.32 -1 6 C-0.67 6.99 -0.34 7.98 0 9 C-0.928125 9.763125 -1.85625 10.52625 -2.8125 11.3125 C-4.98276101 13.11848552 -7.05568065 14.9476629 -9 17 C-9.66796875 15.28125 -9.66796875 15.28125 -10 13 C-8.92578125 10.78125 -8.92578125 10.78125 -7.3125 8.5 C-6.75949219 7.71753906 -6.20648438 6.93507813 -5.63671875 6.12890625 C-3.91413753 3.88831731 -2.11856872 1.87411848 0 0 Z " fill="#E6832E" transform="translate(118,53)"/>
<path d="M0 0 C0.66 0.99 1.32 1.98 2 3 C0.75264433 3.6509259 -0.49801832 4.29551669 -1.75 4.9375 C-2.79414063 5.47697266 -2.79414063 5.47697266 -3.859375 6.02734375 C-11.3182234 9.41649202 -20.12494392 8.40000997 -28 7 C-28.66 5.35 -29.32 3.7 -30 2 C-29.34 1.67 -28.68 1.34 -28 1 C-27.443125 1.680625 -27.443125 1.680625 -26.875 2.375 C-22.97181621 5.75775928 -18.23119298 6.4453744 -13.16015625 6.328125 C-8.27858071 5.58661986 -3.49147768 3.49147768 0 0 Z " fill="#20468B" transform="translate(259,100)"/>
<path d="M0 0 C3.45201639 1.47721422 5.64961936 3.43794001 8.25 6.125 C8.95640625 6.84945312 9.6628125 7.57390625 10.390625 8.3203125 C11.18726563 9.15175781 11.18726563 9.15175781 12 10 C11.06409496 11.1055189 10.12620142 12.20935453 9.1875 13.3125 C8.40439453 14.23482422 8.40439453 14.23482422 7.60546875 15.17578125 C4.6626898 18.51952278 4.6626898 18.51952278 3 20 C2.34 20 1.68 20 1 20 C0.67 19.01 0.34 18.02 0 17 C0.66 17 1.32 17 2 17 C2.33 16.01 2.66 15.02 3 14 C6.0625 12.8125 6.0625 12.8125 9 12 C6.80528594 7.48864333 4.58826282 5.93726652 0 4 C0 2.68 0 1.36 0 0 Z " fill="#1D4486" transform="translate(265,48)"/>
<path d="M0 0 C0.84691406 -0.02449219 1.69382813 -0.04898438 2.56640625 -0.07421875 C8.81763832 -0.10293804 13.70915659 1.20856711 19.125 4.375 C19.785 5.035 20.445 5.695 21.125 6.375 C17.31541879 5.70272096 13.77676043 4.64517754 10.125 3.375 C6.52617994 2.17539331 3.54362018 2.20613271 -0.25 2.1875 C-1.55710938 2.17332031 -2.86421875 2.15914062 -4.2109375 2.14453125 C-7.65598451 2.36122397 -9.77235522 2.98940557 -12.875 4.375 C-16.1875 4.5 -16.1875 4.5 -18.875 4.375 C-14.02070546 -0.47929454 -6.44178893 0.00971612 0 0 Z " fill="#244584" transform="translate(243.875,41.625)"/>
<path d="M0 0 C3.14906415 1.41602213 5.49523672 3.13735082 8.0625 5.4375 C8.73410156 6.03433594 9.40570313 6.63117188 10.09765625 7.24609375 C10.72542969 7.82488281 11.35320312 8.40367188 12 9 C12.59683594 9.48597656 13.19367188 9.97195312 13.80859375 10.47265625 C15 12 15 12 14.91015625 13.953125 C13.79956953 16.4507535 12.41964574 17.8759713 10.4375 19.75 C9.79683594 20.36359375 9.15617187 20.9771875 8.49609375 21.609375 C8.00238281 22.06828125 7.50867188 22.5271875 7 23 C6.67 22.01 6.34 21.02 6 20 C7.28965176 18.62437146 8.62689293 17.29233607 10 16 C10.66 16 11.32 16 12 16 C11.22520264 13.00847418 11.22520264 13.00847418 10 10 C9.01 9.67 8.02 9.34 7 9 C6.67 8.01 6.34 7.02 6 6 C2.49705129 4.28432339 2.49705129 4.28432339 -1 3 C-0.67 2.01 -0.34 1.02 0 0 Z " fill="#1A4180" transform="translate(261,97)"/>
<path d="M0 0 C0.90078278 0.02009628 1.80156555 0.04019257 2.72964478 0.06089783 C3.70364227 0.08793289 4.67763977 0.11496796 5.68115234 0.14282227 C7.17514053 0.17823875 7.17514053 0.17823875 8.6993103 0.21437073 C11.88871165 0.29110498 15.07787613 0.37508735 18.26708984 0.45922852 C20.42593232 0.51243942 22.58478644 0.56517988 24.74365234 0.61743164 C30.04327891 0.74673328 35.34272875 0.88199042 40.64208984 1.02172852 C40.64208984 1.35172852 40.64208984 1.68172852 40.64208984 2.02172852 C39.42626221 2.04678467 38.21043457 2.07184082 36.95776367 2.09765625 C32.43829167 2.1919704 27.91896476 2.29213221 23.3996582 2.39404297 C21.4452657 2.4373011 19.49083762 2.47898249 17.53637695 2.51904297 C14.72384939 2.57696688 11.91149936 2.64059724 9.09912109 2.70532227 C7.79259331 2.73039101 7.79259331 2.73039101 6.45967102 2.75596619 C2.40730463 2.85447683 -1.40346844 3.02692268 -5.35791016 4.02172852 C-5.68791016 3.03172852 -6.01791016 2.04172852 -6.35791016 1.02172852 C-3.98237941 -0.16603686 -2.64469642 -0.06648678 0 0 Z " fill="#15438B" transform="translate(49.35791015625,91.978271484375)"/>
<path d="M0 0 C0.33 0.99 0.66 1.98 1 3 C0.34 3 -0.32 3 -1 3 C-0.67 4.65 -0.34 6.3 0 8 C-1.5778125 7.5978125 -1.5778125 7.5978125 -3.1875 7.1875 C-7.06773492 6.57206426 -7.06773492 6.57206426 -9.625 9.125 C-10.40875 10.07375 -11.1925 11.0225 -12 12 C-13.66666667 13.66666667 -15.33333333 15.33333333 -17 17 C-14.90028176 9.30103313 -8.04608581 4.70841117 -1.50390625 0.84765625 C-1.00761719 0.56792969 -0.51132813 0.28820313 0 0 Z " fill="#1B477F" transform="translate(222,46)"/>
<path d="M0 0 C0.66 0 1.32 0 2 0 C2.66 2.97 3.32 5.94 4 9 C4.66 9 5.32 9 6 9 C7.96120225 10.6201236 9.0954958 12.16494729 10.375 14.375 C12.23475321 17.37921672 14.47616007 19.54087391 17 22 C17.66 22.99 18.32 23.98 19 25 C10.52097935 20.99139982 5.14919461 14.34527278 1 6 C0.3046875 2.65625 0.3046875 2.65625 0 0 Z " fill="#193B81" transform="translate(200,95)"/>
<path d="M0 0 C0.33 0.66 0.66 1.32 1 2 C-5.24030274 12.22894986 -5.24030274 12.22894986 -10 14 C-12.99433748 14.50074225 -15.9710109 14.80862596 -19 15 C-19 14.34 -19 13.68 -19 13 C-18.29875 12.81566406 -17.5975 12.63132812 -16.875 12.44140625 C-9.02306039 10.0410171 -4.87674027 6.53958294 0 0 Z " fill="#E08538" transform="translate(171,93)"/>
<path d="M0 0 C6.47207409 0.17113657 12.35436041 1.52320512 18.5 3.4375 C19.20640625 3.65494873 19.9128125 3.87239746 20.640625 4.09643555 C25.74003016 5.74003016 25.74003016 5.74003016 28 8 C24.46414749 8 22.35877072 7.65095791 19.0625 6.625 C18.17820312 6.35042969 17.29390625 6.07585937 16.3828125 5.79296875 C14 5 14 5 11.4375 3.9375 C7.73303044 2.51270402 3.88145399 1.79489472 0 1 C0 0.67 0 0.34 0 0 Z " fill="#214788" transform="translate(391,73)"/>
<path d="M0 0 C0.33 0 0.66 0 1 0 C1.52924739 10.46733721 0.81006007 16.2849099 -5 25 C-5.66 25 -6.32 25 -7 25 C-7 21 -7 21 -5.6875 19.625 C-5.130625 19.08875 -4.57375 18.5525 -4 18 C-0.2833574 12.4250361 -0.30495366 6.49866775 0 0 Z " fill="#14397A" transform="translate(430,94)"/>
<path d="M0 0 C-1.5 1.125 -1.5 1.125 -4 2 C-5.84128546 1.56478707 -7.68095434 1.11589578 -9.49609375 0.58203125 C-14.56565318 -0.59638428 -19.81630841 -0.69972518 -25 -1 C-25.33 -0.34 -25.66 0.32 -26 1 C-26.99 0.01 -27.98 -0.98 -29 -2 C-19.48113275 -3.94770668 -9.25137769 -2.8320544 0 0 Z " fill="#1B4483" transform="translate(416,44)"/>
<path d="M0 0 C1.15762737 0.71029355 2.30079564 1.44418226 3.4375 2.1875 C4.07558594 2.59355469 4.71367187 2.99960938 5.37109375 3.41796875 C8.27653494 6.23980012 7.98365201 9.44220658 8.09765625 13.33203125 C8.08605469 14.48058594 8.07445312 15.62914063 8.0625 16.8125 C8.05347656 17.97394531 8.04445312 19.13539062 8.03515625 20.33203125 C8.02355469 21.21246094 8.01195312 22.09289062 8 23 C7.34 23 6.68 23 6 23 C6.03480469 22.3709375 6.06960937 21.741875 6.10546875 21.09375 C6.30021875 14.93594055 5.64514576 10.5841966 3 5 C2.47019531 4.47277344 1.94039062 3.94554688 1.39453125 3.40234375 C0 2 0 2 0 0 Z " fill="#D1893F" transform="translate(166,68)"/>
<path d="M0 0 C1.65 0 3.3 0 5 0 C4.484375 0.7425 3.96875 1.485 3.4375 2.25 C1.8510643 4.79705614 1.8510643 4.79705614 1.9375 7.125 C3.57214982 10.00967615 6.03139323 10.73676308 9 12 C6 13 6 13 2.875 11.9375 C0 10 0 10 -0.9375 7.0625 C-0.99159571 4.41181002 -0.86010102 2.48473629 0 0 Z " fill="#1A4689" transform="translate(382,60)"/>
<path d="M0 0 C0.66 0 1.32 0 2 0 C2 5.61 2 11.22 2 17 C-1.11744443 12.84340742 -1.38028795 12.20868309 -1.25 7.375 C-1.23453125 6.41335937 -1.2190625 5.45171875 -1.203125 4.4609375 C-1 2 -1 2 0 0 Z " fill="#F57F1D" transform="translate(125,75)"/>
<path d="M0 0 C2.625 -0.1875 2.625 -0.1875 5 0 C4.54625 0.350625 4.0925 0.70125 3.625 1.0625 C1.35338666 3.77096206 0.83201146 6.60795328 0 10 C-1.32 9.67 -2.64 9.34 -4 9 C-2.94124926 5.59687262 -1.99097846 2.98646769 0 0 Z " fill="#164995" transform="translate(368,105)"/>
<path d="M0 0 C4.26238212 -0.35519851 5.68470877 0.4647773 9 3 C11.31347872 3.73260159 13.645752 4.411438 16 5 C16 5.33 16 5.66 16 6 C7.42857143 6.14285714 7.42857143 6.14285714 4 5 C4 4.01 4 3.02 4 2 C2.68 1.34 1.36 0.68 0 0 Z " fill="#E5872C" transform="translate(132,101)"/>
<path d="M0 0 C0 0.66 0 1.32 0 2 C-2.84277181 3.2060244 -5.56840671 4.14958071 -8.5625 4.9375 C-11.72487194 5.91496042 -13.54882411 6.84296522 -16 9 C-16.66 8.67 -17.32 8.34 -18 8 C-12.21676608 3.33231374 -7.70560113 0 0 0 Z " fill="#E5843C" transform="translate(139,43)"/>
<path d="M0 0 C0.99 0.33 1.98 0.66 3 1 C3 1.66 3 2.32 3 3 C3.66 3.33 4.32 3.66 5 4 C3.02 5.32 1.04 6.64 -1 8 C-1.99 7.01 -2.98 6.02 -4 5 C-2.68 3.35 -1.36 1.7 0 0 Z " fill="#124190" transform="translate(418,116)"/>
<path d="M0 0 C1.875 0.3125 1.875 0.3125 4 1 C4.66 1.99 5.32 2.98 6 4 C8.40485798 5.44422226 8.40485798 5.44422226 11.125 6.6875 C12.03507812 7.12449219 12.94515625 7.56148438 13.8828125 8.01171875 C14.58148438 8.33785156 15.28015625 8.66398437 16 9 C12.58045423 10.13984859 12.1951126 9.96061034 9.125 8.4375 C5.0094494 6.27341896 2.71661063 3.73533962 0 0 Z " fill="#1A3B79" transform="translate(367,80)"/>
<path d="M0 0 C3.73487777 0.4979837 5.81237635 0.87491756 9 3 C9.33 3.99 9.66 4.98 10 6 C10.99 6.33 11.98 6.66 13 7 C11.02 7.99 11.02 7.99 9 9 C8.443125 8.236875 7.88625 7.47375 7.3125 6.6875 C5.03070844 4.03568819 3.02480829 2.68044905 0 1 C0 0.67 0 0.34 0 0 Z " fill="#19407F" transform="translate(252,63)"/>
<path d="M0 0 C1.32 0 2.64 0 4 0 C3 3 3 3 1.07421875 4.23828125 C-0.10720703 4.77001953 -0.10720703 4.77001953 -1.3125 5.3125 C-2.09238281 5.67988281 -2.87226563 6.04726562 -3.67578125 6.42578125 C-6 7 -6 7 -8.29296875 6.10546875 C-8.85628906 5.74066406 -9.41960937 5.37585938 -10 5 C-9.16855469 4.70996094 -9.16855469 4.70996094 -8.3203125 4.4140625 C-7.59585938 4.15367188 -6.87140625 3.89328125 -6.125 3.625 C-5.04605469 3.24214844 -5.04605469 3.24214844 -3.9453125 2.8515625 C-1.81842006 2.06122217 -1.81842006 2.06122217 0 0 Z " fill="#123A81" transform="translate(262,119)"/>
<path d="M0 0 C0.66 0.33 1.32 0.66 2 1 C1.5188509 6.77378925 -0.18467181 10.95859836 -3 16 C-3.66 15.01 -4.32 14.02 -5 13 C-4.67 12.01 -4.34 11.02 -4 10 C-3.34 10 -2.68 10 -2 10 C-1.855625 9.278125 -1.71125 8.55625 -1.5625 7.8125 C-1.04166667 5.20833333 -0.52083333 2.60416667 0 0 Z " fill="#1A3776" transform="translate(425,47)"/>
<path d="M0 0 C-0.66 1.32 -1.32 2.64 -2 4 C-5.96 4 -9.92 4 -14 4 C-14 3.67 -14 3.34 -14 3 C-12.02 3 -10.04 3 -8 3 C-8 2.34 -8 1.68 -8 1 C-5.10765685 0.17361624 -3.11257569 0 0 0 Z " fill="#1A4795" transform="translate(331,105)"/>
<path d="M0 0 C2.8842454 0.34485543 3.8207818 0.78255407 5.703125 3.06640625 C6.21359375 3.89011719 6.7240625 4.71382812 7.25 5.5625 C8.03117188 6.80193359 8.03117188 6.80193359 8.828125 8.06640625 C9.21484375 8.70449219 9.6015625 9.34257813 10 10 C9.67 10.66 9.34 11.32 9 12 C7 11 7 11 6 8 C5.34 7.67 4.68 7.34 4 7 C3.67 6.01 3.34 5.02 3 4 C2.01979625 2.9805881 1.02196992 1.97753644 0 1 C0 0.67 0 0.34 0 0 Z " fill="#E08135" transform="translate(182,55)"/>
<path d="M0 0 C6.06892629 -0.25287193 11.16200408 0.30167391 17 2 C17 2.33 17 2.66 17 3 C10.93107371 3.25287193 5.83799592 2.69832609 0 1 C0 0.67 0 0.34 0 0 Z " fill="#F08C40" transform="translate(137,125)"/>
<path d="M0 0 C1.62463842 -0.05395478 3.24978541 -0.09277195 4.875 -0.125 C6.23238281 -0.15980469 6.23238281 -0.15980469 7.6171875 -0.1953125 C10 0 10 0 12 2 C11.09636719 2.13277344 10.19273437 2.26554687 9.26171875 2.40234375 C7.49248047 2.66724609 7.49248047 2.66724609 5.6875 2.9375 C3.92986328 3.19853516 3.92986328 3.19853516 2.13671875 3.46484375 C-1.01641403 3.92093031 -1.01641403 3.92093031 -4 5 C-3.67 4.01 -3.34 3.02 -3 2 C-2.01 2 -1.02 2 0 2 C0 1.34 0 0.68 0 0 Z " fill="#114498" transform="translate(236,59)"/>
<path d="M0 0 C0.33 0.99 0.66 1.98 1 3 C0.34 3 -0.32 3 -1 3 C-0.67 4.65 -0.34 6.3 0 8 C-1.65 7.67 -3.3 7.34 -5 7 C-3.75023244 3.34683329 -3.32901247 2.21934164 0 0 Z " fill="#124390" transform="translate(222,46)"/>
<path d="M0 0 C4.99275057 1.27721526 7.57611908 3.17330957 11 7 C10.01 7.33 9.02 7.66 8 8 C5.95703125 6.6015625 5.95703125 6.6015625 3.8125 4.625 C3.09707031 3.97789063 2.38164062 3.33078125 1.64453125 2.6640625 C0 1 0 1 0 0 Z " fill="#1A4086" transform="translate(285,115)"/>
<path d="M0 0 C0.33 0 0.66 0 1 0 C1.30993348 4.54569102 0.97680153 6.565229 -2 10 C-2.69580267 11.31836295 -3.37224433 12.64791086 -4 14 C-4.29734296 8.94516962 -3.95575779 6.1380609 -1 2 C-0.67 1.34 -0.34 0.68 0 0 Z " fill="#ED7E23" transform="translate(192,94)"/>
<path d="M0 0 C2.64 0.33 5.28 0.66 8 1 C8.66 2.65 9.32 4.3 10 6 C9.01 6.495 9.01 6.495 8 7 C7.67 6.01 7.34 5.02 7 4 C3.48809191 2.77030122 3.48809191 2.77030122 0 2 C0 1.34 0 0.68 0 0 Z " fill="#17458C" transform="translate(416,45)"/>
<path d="M0 0 C0.66 0 1.32 0 2 0 C0.6302836 3.99500618 -1.25722422 6.80009492 -4 10 C-4 8.02 -4 6.04 -4 4 C-3.34 4 -2.68 4 -2 4 C-1.34 2.68 -0.68 1.36 0 0 Z " fill="#194689" transform="translate(225,68)"/>
<path d="M0 0 C4.87362847 0.45336079 7.39042389 1.7089159 11 5 C4.6 4.50769231 4.6 4.50769231 1.5625 1.9375 C1.046875 1.298125 0.53125 0.65875 0 0 Z " fill="#E48E35" transform="translate(125,120)"/>
<path d="M0 0 C2.9156164 3.54039134 5.50127818 7.1626772 8 11 C4.77204678 10.04033823 3.25871639 9.33900769 1.1875 6.625 C0 4 0 4 0 0 Z " fill="#1B4286" transform="translate(221,91)"/>
<path d="M0 0 C1.00289062 0.10183594 2.00578125 0.20367187 3.0390625 0.30859375 C3.80992188 0.39238281 4.58078125 0.47617188 5.375 0.5625 C5.375 0.8925 5.375 1.2225 5.375 1.5625 C1.415 2.2225 -2.545 2.8825 -6.625 3.5625 C-6.955 2.5725 -7.285 1.5825 -7.625 0.5625 C-4.89657939 -0.80171031 -3.01546682 -0.31557211 0 0 Z " fill="#103C7D" transform="translate(50.625,92.4375)"/>
<path d="M0 0 C0.33 0.66 0.66 1.32 1 2 C-1.51407619 6.28324091 -3.12314139 8.64531705 -8 10 C-7.59007812 9.52949219 -7.18015625 9.05898437 -6.7578125 8.57421875 C-6.21898437 7.95160156 -5.68015625 7.32898438 -5.125 6.6875 C-4.59132812 6.07261719 -4.05765625 5.45773438 -3.5078125 4.82421875 C-1.8359553 2.86501788 -1.8359553 2.86501788 0 0 Z " fill="#D78C44" transform="translate(171,93)"/>
<path d="M0 0 C0.33 0.99 0.66 1.98 1 3 C-0.670625 3.433125 -0.670625 3.433125 -2.375 3.875 C-6.00291092 4.69241329 -6.00291092 4.69241329 -8 7 C-8.99 6.67 -9.98 6.34 -11 6 C-8.12835434 3.29727467 -6.69008159 2.05208163 -2.6875 1.75 C-1.3571875 1.87375 -1.3571875 1.87375 0 2 C0 1.34 0 0.68 0 0 Z " fill="#F17F1B" transform="translate(134,45)"/>
<path d="M0 0 C1.32 0.33 2.64 0.66 4 1 C4 1.66 4 2.32 4 3 C4.9590625 3.1546875 4.9590625 3.1546875 5.9375 3.3125 C6.618125 3.539375 7.29875 3.76625 8 4 C8.33 4.99 8.66 5.98 9 7 C4.58110387 5.64978174 2.65654657 3.73884332 0 0 Z " fill="#E58A3A" transform="translate(116,113)"/>
<path d="M0 0 C2.64 0.66 5.28 1.32 8 2 C8 2.99 8 3.98 8 5 C4.85262818 4.30058404 1.97411124 3.23921302 -1 2 C-0.67 1.34 -0.34 0.68 0 0 Z " fill="#164799" transform="translate(394,90)"/>
<path d="M0 0 C1.32 0.66 2.64 1.32 4 2 C4 2.66 4 3.32 4 4 C1 6 1 6 -2 6 C-1.34 4.02 -0.68 2.04 0 0 Z " fill="#F37D1B" transform="translate(178,52)"/>
<path d="M0 0 C-2.39763185 2.39763185 -3.33273498 2.34280586 -6.625 2.625 C-7.44226563 2.69976562 -8.25953125 2.77453125 -9.1015625 2.8515625 C-9.72804687 2.90054688 -10.35453125 2.94953125 -11 3 C-7.63114177 -0.36885823 -4.54278442 -0.10095076 0 0 Z " fill="#244D90" transform="translate(236,43)"/>
<path d="M0 0 C1.8125 0.8125 1.8125 0.8125 2.8125 2.8125 C-0.51284757 3.92094919 -2.80932575 3.65704356 -6.1875 2.8125 C-2.77144161 -0.23755214 -2.77144161 -0.23755214 0 0 Z " fill="#0E3881" transform="translate(412.1875,122.1875)"/>
<path d="M0 0 C0.66 0.99 1.32 1.98 2 3 C1.67 3.99 1.34 4.98 1 6 C2.32 6.33 3.64 6.66 5 7 C4.01 7.495 4.01 7.495 3 8 C0.375 6.5625 0.375 6.5625 -2 5 C-1.34 3.35 -0.68 1.7 0 0 Z " fill="#21407A" transform="translate(363,114)"/>
<path d="M0 0 C0.66 0.33 1.32 0.66 2 1 C1.01 2.98 0.02 4.96 -1 7 C-1.66 7 -2.32 7 -3 7 C-2.25 2.25 -2.25 2.25 0 0 Z " fill="#E58A3E" transform="translate(129,73)"/>
<path d="M0 0 C0.33 0.99 0.66 1.98 1 3 C1.99 3.33 2.98 3.66 4 4 C4 4.99 4 5.98 4 7 C1.525 6.01 1.525 6.01 -1 5 C-0.67 3.35 -0.34 1.7 0 0 Z " fill="#F28423" transform="translate(188,63)"/>
<path d="M0 0 C0.66 0.33 1.32 0.66 2 1 C0.02 3.31 -1.96 5.62 -4 8 C-4.66 7.67 -5.32 7.34 -6 7 C-4.625 5 -4.625 5 -3 3 C-2.34 3 -1.68 3 -1 3 C-0.67 2.01 -0.34 1.02 0 0 Z " fill="#D98A40" transform="translate(187,108)"/>
<path d="M0 0 C1.65 0 3.3 0 5 0 C4.2884375 0.680625 4.2884375 0.680625 3.5625 1.375 C1.90972192 2.93258204 1.90972192 2.93258204 1 5 C0.01 5 -0.98 5 -2 5 C-1.34 3.35 -0.68 1.7 0 0 Z " fill="#163D88" transform="translate(368,105)"/>
<path d="M0 0 C1.65 1.65 3.3 3.3 5 5 C3.68 5.33 2.36 5.66 1 6 C0.34 4.35 -0.32 2.7 -1 1 C-0.67 0.67 -0.34 0.34 0 0 Z " fill="#113D82" transform="translate(230,101)"/>
<path d="M0 0 C0.99 0.33 1.98 0.66 3 1 C1.71937515 2.7074998 0.38232443 4.37373596 -1 6 C-1.66 6 -2.32 6 -3 6 C-3 4.68 -3 3.36 -3 2 C-2.01 2 -1.02 2 0 2 C0 1.34 0 0.68 0 0 Z " fill="#DB8632" transform="translate(133,67)"/>
<path d="M0 0 C4.10269692 0.31559207 4.95904634 0.95904634 8 4 C4.7 3.34 1.4 2.68 -2 2 C-1.34 1.34 -0.68 0.68 0 0 Z " fill="#1E4283" transform="translate(406,59)"/>
<path d="M0 0 C0 1.32 0 2.64 0 4 C-4.875 2.25 -4.875 2.25 -6 0 C-3 -1 -3 -1 0 0 Z " fill="#F48A21" transform="translate(164,43)"/>
<path d="" fill="#000000" transform="translate(0,0)"/>
<path d="" fill="#000000" transform="translate(0,0)"/>
<path d="" fill="#008080" transform="translate(0,0)"/>
</svg>
